<svg width="501" height="120" viewBox="0 0 501 120" fill="none" xmlns="http://www.w3.org/2000/svg">
<path d="M185.333 72.2009C185.928 72.2009 186.522 72.4927 186.965 72.9358L191.558 77.8421C189.332 80.6735 186.522 82.8997 183.107 84.3911C179.703 85.8716 175.705 86.6173 171.112 86.6173C166.962 86.6173 163.115 85.8716 159.851 84.5424C156.447 83.051 153.626 81.1166 151.26 78.5878C148.893 76.059 147.11 72.9358 145.921 69.5209C144.592 65.9546 143.997 62.237 143.997 58.0656C143.997 55.245 144.3 52.5649 144.883 50.0361C145.478 47.5073 146.375 45.1298 147.553 43.0549C148.742 40.9692 150.071 39.0348 151.703 37.2516C153.334 35.6198 155.107 34.1285 157.182 32.9397C159.257 31.751 161.483 30.854 163.849 30.1083C166.227 29.5139 168.885 29.2221 171.706 29.2221C173.781 29.2221 175.705 29.3734 177.477 29.8165C179.26 30.1083 181.032 30.7135 182.664 31.3079C184.296 31.9022 185.777 32.7884 187.106 33.6854C188.446 34.5715 189.635 35.6198 190.813 36.6573L186.965 42.0066C186.663 42.3092 186.371 42.601 186.079 42.9036C185.777 43.1954 185.182 43.3467 184.588 43.3467C184.004 43.3467 183.41 43.1954 182.664 42.7523C182.07 42.3092 181.335 41.8662 180.297 41.261C179.411 40.6666 178.223 40.2235 176.893 39.7804C175.553 39.3373 173.781 39.1861 171.706 39.1861C169.329 39.1861 167.254 39.6291 165.19 40.5261C163.255 41.4123 161.483 42.601 160.143 44.2437C158.813 45.8755 157.625 47.8099 156.89 50.1874C156.144 52.5649 155.701 55.245 155.701 58.2169C155.701 61.1888 156.144 63.8689 156.89 66.2464C157.625 68.6239 158.813 70.5583 160.294 72.2009C161.775 73.8328 163.406 75.0215 165.33 75.9185C167.254 76.8047 169.329 77.1072 171.555 77.1072C172.884 77.1072 174.073 77.1072 175.11 76.956C176.148 76.8047 177.185 76.6534 178.071 76.3616C178.957 76.059 179.854 75.6159 180.589 75.1728C181.335 74.7189 182.221 74.1246 183.107 73.2384C183.41 72.9358 183.702 72.7953 184.004 72.644C184.588 72.2009 184.89 72.2009 185.333 72.2009Z" fill="#F5F5F5"/>
<path d="M205.337 28.1847V86.0229H194.671V28.1847H205.337Z" fill="#F5F5F5"/>
<path d="M230.225 45.4324C233.186 45.4324 235.855 45.8755 238.373 46.9129C240.891 47.8099 242.966 49.3013 244.598 51.0844C246.37 52.8675 247.7 54.9424 248.597 57.4712C249.483 60 250.077 62.8314 250.077 66.0951C250.077 69.2183 249.634 72.2009 248.597 74.7189C247.7 77.2477 246.219 79.4848 244.598 81.2679C242.815 83.051 240.74 84.3911 238.373 85.4285C235.996 86.4768 233.186 86.9199 230.225 86.9199C227.264 86.9199 224.443 86.4768 222.077 85.4285C219.559 84.5423 217.484 83.051 215.701 81.2679C213.928 79.4848 212.588 77.2477 211.702 74.7189C210.665 72.2009 210.222 69.3695 210.222 66.0951C210.222 62.9719 210.665 60 211.702 57.4712C212.74 54.9424 214.069 52.8675 215.701 51.0844C217.332 49.3013 219.559 47.9612 222.077 46.9129C224.595 45.8755 227.264 45.4324 230.225 45.4324ZM230.225 78.5878C233.186 78.5878 235.553 77.5503 237.033 75.4646C238.514 73.3897 239.26 70.2665 239.26 66.0951C239.26 61.9344 238.514 58.8113 237.033 56.7364C235.553 54.6506 233.337 53.6132 230.225 53.6132C227.113 53.6132 224.886 54.6506 223.406 56.7364C221.925 58.8113 221.191 61.9344 221.191 66.0951C221.191 70.2665 221.925 73.3897 223.406 75.4646C224.886 77.5503 227.113 78.5878 230.225 78.5878Z" fill="#F5F5F5"/>
<path d="M289.922 46.0268V86.0229H283.405C282.076 86.0229 281.19 85.4285 280.736 84.0885L280.001 81.2679C279.256 82.0136 278.369 82.7592 277.483 83.3536C276.597 83.948 275.7 84.5424 274.814 84.9854C273.928 85.4285 272.739 85.8716 271.702 86.0229C270.664 86.1742 269.335 86.4768 268.006 86.4768C265.779 86.4768 263.856 86.0229 262.224 85.2772C260.592 84.5424 259.112 83.4941 257.923 82.154C256.745 80.8248 255.999 79.1822 255.405 77.399C254.811 75.4646 254.519 73.5302 254.519 71.304V46.0268H265.185V71.4553C265.185 73.6815 265.628 75.4646 266.666 76.6534C267.703 77.8421 269.184 78.4365 271.259 78.4365C272.739 78.4365 274.22 78.1447 275.408 77.399C276.738 76.8047 277.926 75.9185 279.115 74.7189V46.0268H289.922Z" fill="#F5F5F5"/>
<path d="M332.004 28.1847V86.0229H325.487C324.147 86.0229 323.261 85.4285 322.818 84.0885L321.932 80.6735C321.186 81.5597 320.3 82.3053 319.414 83.051C318.517 83.7967 317.631 84.3911 316.593 84.9854C315.556 85.5798 314.518 85.8716 313.33 86.1742C312.152 86.4768 310.812 86.6173 309.482 86.6173C307.407 86.6173 305.333 86.1742 303.56 85.2772C301.777 84.3911 300.297 83.051 298.967 81.2679C297.627 79.4848 296.59 77.399 295.995 74.8702C295.261 72.3414 294.969 69.5209 294.969 66.2464C294.969 63.2745 295.412 60.4539 296.147 57.9251C296.892 55.3963 298.07 53.1593 299.562 51.2249C301.042 49.3013 302.815 47.9612 304.889 46.9129C306.964 45.8755 309.331 45.2811 311.849 45.2811C314.075 45.2811 315.848 45.5837 317.339 46.3186C318.82 46.9129 320.149 47.8099 321.337 48.9987V28.1847H332.004ZM321.337 56.4338C320.3 55.245 319.263 54.4993 318.074 54.0563C316.885 53.6132 315.707 53.3106 314.367 53.3106C313.038 53.3106 311.849 53.6132 310.812 54.0563C309.774 54.4993 308.888 55.245 308.153 56.4338C307.407 57.4712 306.813 58.8113 306.37 60.4539C305.927 62.0857 305.776 64.0202 305.776 66.2464C305.776 68.4834 305.927 70.407 306.219 71.8984C306.521 73.3897 307.116 74.7189 307.699 75.6159C308.294 76.5129 309.039 77.2477 310.077 77.7016C310.963 78.1447 312 78.296 313.038 78.296C314.961 78.296 316.442 77.8421 317.782 77.1072C319.111 76.3616 320.3 75.3241 321.337 73.9841V56.4338Z" fill="#F5F5F5"/>
<path d="M370.671 40.5261C370.368 41.1205 369.925 41.5636 369.633 41.8661C369.19 42.1579 368.747 42.3092 368.153 42.3092C367.558 42.3092 366.964 42.1579 366.37 41.7149C365.775 41.261 364.889 40.8179 364.003 40.3748C363.117 39.9317 362.079 39.4778 361.042 39.0348C359.853 38.5917 358.524 38.4404 357.043 38.4404C354.374 38.4404 352.299 39.0348 350.959 40.2235C349.63 41.4123 348.895 43.0549 348.895 44.9785C348.895 46.1781 349.187 47.2155 349.933 48.1017C350.667 48.8474 351.554 49.593 352.894 50.1874C354.072 50.7818 355.412 51.3762 357.043 51.8192C358.524 52.2731 360.145 52.8675 361.777 53.3106C363.409 53.905 364.889 54.4993 366.521 55.245C368.002 55.9907 369.331 56.8768 370.52 58.0656C371.708 59.2543 372.746 60.5944 373.481 62.237C374.226 63.8689 374.518 65.8033 374.518 68.1808C374.518 70.7096 374.075 73.0871 373.189 75.3241C372.303 77.5503 370.963 79.4848 369.331 81.1166C367.71 82.7592 365.635 84.0885 363.117 84.9854C360.599 85.8716 357.93 86.4768 354.817 86.4768C353.034 86.4768 351.262 86.3255 349.479 85.8716C347.706 85.4285 346.074 84.9854 344.443 84.3911C342.822 83.7967 341.33 82.8997 339.85 82.0136C338.369 81.1166 337.191 80.0791 336.002 79.0417L339.407 73.5302C339.709 73.0871 340.001 72.7953 340.595 72.4927C341.038 72.2009 341.482 72.0496 342.076 72.0496C342.822 72.0496 343.556 72.3414 344.302 72.7953C345.037 73.2384 345.923 73.8328 346.961 74.4272C347.998 75.0215 349.187 75.6159 350.516 76.059C351.856 76.5129 353.488 76.8047 355.26 76.8047C357.93 76.8047 360.004 76.2103 361.485 74.8702C362.966 73.5302 363.7 71.7471 363.7 69.3696C363.7 67.889 363.409 66.8408 362.663 65.9546C361.928 65.0576 361.042 64.312 359.853 63.7176C358.664 63.1232 357.335 62.6801 355.855 62.237C354.374 61.7832 352.742 61.3401 351.11 60.7457C349.479 60.1513 347.998 59.5569 346.377 58.8113C344.745 58.0656 343.556 57.1794 342.368 55.9907C341.19 54.8019 340.293 53.3106 339.558 51.5275C338.812 49.7443 338.52 47.6586 338.52 44.9785C338.52 42.9036 338.964 40.8179 339.709 38.8835C340.595 36.949 341.784 35.1659 343.265 33.6854C344.745 32.194 346.82 30.854 349.187 29.9678C351.554 29.0709 354.223 28.6278 357.184 28.6278C360.599 28.6278 363.7 29.2221 366.521 30.2596C369.331 31.3079 371.849 32.7884 373.783 34.5715L370.671 40.5261Z" fill="#F5F5F5"/>
<path d="M389.637 50.0361C390.372 49.3013 391.117 48.6961 392.003 48.253C392.738 47.6586 393.635 47.2155 394.521 46.7725C395.408 46.3186 396.445 46.0268 397.483 45.8755C398.52 45.7242 399.709 45.5837 400.887 45.5837C403.113 45.5837 405.037 46.0268 406.668 46.7725C408.3 47.5073 409.781 48.5556 410.969 49.8956C412.147 51.2249 413.044 52.8675 413.487 54.6506C414.071 56.5851 414.374 58.5195 414.374 60.7457V86.1742H403.707V60.5944C403.707 58.3682 403.264 56.5851 402.227 55.3963C401.189 54.2076 399.709 53.6132 397.634 53.6132C396.153 53.6132 394.673 53.905 393.484 54.6506C392.155 55.245 390.966 56.1312 389.777 57.3307V86.0229H379.111V28.1847H389.777V50.0361H389.637Z" fill="#F5F5F5"/>
<path d="M438.819 45.4324C441.78 45.4324 444.449 45.8755 446.967 46.9129C449.485 47.8099 451.56 49.3013 453.192 51.0844C454.964 52.8675 456.304 54.9424 457.19 57.4712C458.076 60 458.671 62.8314 458.671 66.0951C458.671 69.2183 458.228 72.2009 457.19 74.7189C456.304 77.2477 454.813 79.4848 453.192 81.2679C451.409 83.051 449.334 84.3911 446.967 85.4285C444.6 86.4768 441.78 86.9199 438.819 86.9199C435.858 86.9199 433.037 86.4768 430.67 85.4285C428.304 84.3911 426.077 83.051 424.294 81.2679C422.522 79.4848 421.182 77.2477 420.296 74.7189C419.258 72.2009 418.815 69.3695 418.815 66.0951C418.815 62.9719 419.258 60 420.296 57.4712C421.333 54.9424 422.673 52.8675 424.294 51.0844C425.926 49.3013 428.152 47.9612 430.67 46.9129C433.037 45.8755 435.706 45.4324 438.819 45.4324ZM438.819 78.5878C441.78 78.5878 444.146 77.5503 445.627 75.4646C447.118 73.3897 447.853 70.2665 447.853 66.0951C447.853 61.9344 447.118 58.8113 445.627 56.7364C444.146 54.6506 441.931 53.6132 438.819 53.6132C435.706 53.6132 433.48 54.6506 432 56.7364C430.519 58.8113 429.784 61.9344 429.784 66.0951C429.784 70.2665 430.519 73.3897 432 75.4646C433.34 77.5503 435.706 78.5878 438.819 78.5878Z" fill="#F5F5F5"/>
<path d="M473.487 51.2249C474.222 50.3387 475.119 49.593 476.005 48.8474C476.891 48.1017 477.929 47.5073 478.966 46.9129C480.004 46.3186 481.041 46.0268 482.23 45.7242C483.408 45.4324 484.748 45.2811 486.077 45.2811C488.152 45.2811 490.227 45.7242 491.999 46.6212C493.782 47.5073 495.263 48.8474 496.592 50.6305C497.932 52.4136 498.818 54.4993 499.553 57.0281C500.299 59.5569 500.591 62.3775 500.591 65.652C500.591 68.6239 500.148 71.4553 499.413 73.9841C498.667 76.5129 497.489 78.7391 495.998 80.5222C494.517 82.3053 492.745 83.7967 490.67 84.8341C488.595 85.8716 486.228 86.4768 483.71 86.4768C481.484 86.4768 479.712 86.1742 478.22 85.4285C476.74 84.8341 475.411 83.948 474.222 82.7592V98.6669H463.556V46.0268H470.072C471.412 46.0268 472.298 46.6212 472.741 47.9612L473.487 51.2249ZM474.081 75.4646C475.119 76.6534 476.146 77.399 477.334 77.8421C478.523 78.296 479.712 78.5878 481.041 78.5878C482.37 78.5878 483.559 78.296 484.597 77.8421C485.634 77.399 486.52 76.6534 487.266 75.4646C488.001 74.4272 488.595 73.0871 489.038 71.4553C489.481 69.8126 489.633 67.889 489.633 65.652C489.633 63.4258 489.481 61.4914 489.038 60C488.746 58.5195 488.152 57.1794 487.558 56.2825C486.963 55.3963 486.228 54.6506 485.191 54.2076C484.294 53.7537 483.267 53.6132 482.23 53.6132C480.295 53.6132 478.815 53.905 477.486 54.6506C476.146 55.3963 474.968 56.4338 473.93 57.9251V75.4646H474.081Z" fill="#F5F5F5"/>
<path d="M59.704 5.87937C66.9662 5.87937 74.0771 7.3599 80.5936 10.1913C86.9588 12.8606 92.7405 16.7294 97.6252 21.787C102.521 26.8446 106.519 32.4966 109.189 38.8835C111.998 45.5837 113.479 52.5649 113.479 59.8487C113.479 67.1433 111.998 74.2758 109.189 80.8248C106.519 87.2116 102.661 93.0149 97.6252 97.9212C92.5892 102.828 86.9588 106.848 80.5936 109.517C73.9258 112.348 66.9662 113.829 59.704 113.829C52.4418 113.829 45.3309 112.348 38.8144 109.517C32.4383 106.848 26.6675 102.979 21.772 97.9212C16.8873 92.8636 12.8888 87.2116 10.2195 80.8248C7.40969 74.1245 5.92916 67.1433 5.92916 59.8487C5.92916 52.5649 7.40969 45.4324 10.2195 38.8835C12.8888 32.4966 16.736 26.6933 21.772 21.787C26.808 16.8807 32.4383 12.8606 38.8144 10.1913C45.3309 7.3599 52.4418 5.87937 59.704 5.87937ZM59.704 0.670471C26.9593 0.670471 0.590576 27.1364 0.590576 60C0.590576 92.8636 26.9593 119.33 59.704 119.33C92.4487 119.33 118.817 92.8636 118.817 60C118.817 27.1364 92.2974 0.670471 59.704 0.670471Z" fill="#F5F5F5"/>
<path d="M78.2161 79.636H41.1811C40.5867 79.636 40.0031 79.1822 40.0031 78.4365V41.261C40.0031 40.6666 40.4462 40.0722 41.1811 40.0722H78.2161C78.8105 40.0722 79.4048 40.5261 79.4048 41.261V78.4365C79.2536 79.1822 78.8105 79.636 78.2161 79.636Z" fill="#F5F5F5"/>
</svg>
